<svg xmlns="http://www.w3.org/2000/svg" xmlns:xlink="http://www.w3.org/1999/xlink" class="b7b8e4 icon" data-class-name="b7b8e4" viewBox="0 0 32 32"><path d="M31.682 9.6c0 0-0.312-2.206-1.274-3.174-1.218-1.274-2.582-1.282-3.206-1.356-4.474-0.326-11.194-0.326-11.194-0.326h-0.012c0 0-6.718 0-11.194 0.326-0.626 0.076-1.988 0.082-3.206 1.356-0.962 0.968-1.268 3.174-1.268 3.174s-0.318 2.588-0.318 5.182v2.426c0 2.588 0.318 5.182 0.318 5.182s0.312 2.206 1.268 3.176c1.218 1.274 2.818 1.232 3.532 1.368 2.562 0.244 10.882 0.318 10.882 0.318s6.726-0.012 11.2-0.332c0.626-0.074 1.988-0.082 3.206-1.356 0.962-0.968 1.274-3.176 1.274-3.176s0.318-2.588 0.318-5.182v-2.426c-0.006-2.588-0.324-5.182-0.324-5.182zM12.694 20.15v-8.994l8.644 4.512-8.644 4.482z"></path></svg>