<svg xmlns="http://www.w3.org/2000/svg" width="3000" height="1361.998" viewBox="0 0 3000 1361.998">
  <defs>
    <style>
      .cls-1 {
        fill: #fff;
        fill-rule: evenodd;
      }
    </style>
  </defs>
  <path id="result_vector" data-name="result vector" class="cls-1" d="M460,599.812H3380a40,40,0,0,1,40,40v920a40,40,0,0,1-40,40H460a40,40,0,0,1-40-40v-920A40,40,0,0,1,460,599.812Zm2686-113q-3.015-4.006-13.5-2l-16.5,4-1.5-3q32.985-9,37.5-12,9-3,9-11v-197h-45v50h36v10h-36v46h36v10h-36v40q0,24-45,56-6.015,4.994-12,11h-12q37.485-28.006,39-65v-180h30v12h45v-12h30v219Q3192.485,477.812,3146,486.812Zm-141-127h30v-10h27v117h-27v-13h-42v17h-27v-121h27v10h3a63.878,63.878,0,0,0,6-18v-44h-51v-12h51v-46h30v46h51v12h-51Q3032,336.812,3005,359.812Zm-12,10v74h42v-74h-42Zm-253.8,117q-43.515-14.014-72-39-18,10.008-58.5,28a199.1,199.1,0,0,0-22.5,11h-12q43.485-22.006,85.5-47-27-37.992-25.5-91h-12v43q0,33-55.5,83a111.532,111.532,0,0,0-10.5,12h-9q40.5-40.006,45-93v-130h30v10h30v-36h30v36h30v-10h30v40q-15.015-6-30,6v-26h-30v55h15v-11h30q2.985,74.016-39,104,29.985,20.016,60,23Q2739.2,460.812,2739.2,486.812Zm-87-203h-30v55h30v-55Zm45,65h-57q10.485,53.016,36,73Q2695.685,398.82,2697.2,348.812Zm-142.5,110a117.356,117.356,0,0,1-22.5,24,267.358,267.358,0,0,1-34.5-88h1.5q1.485,1.008,24,25l57-128h3l-46.5,144Q2539.685,440.828,2554.7,458.812Zm-33-217,1.5-1q31.5,18,49.5,32a66.389,66.389,0,0,1-13.5,23Q2536.7,273.828,2521.7,241.812Zm4.5,112q-22.5-27.984-34.5-57l1.5-1q29.985,20.016,48,34A86.287,86.287,0,0,1,2526.2,353.812Zm-241.8,101q-16.515,6-10.5,25v3a16.078,16.078,0,0,1-4.5-1q-81-29.014-97.5-116-16.515,57-130.5,117h-10.5q113.985-60.984,112.5-151v-20h-105v-12h105v-62h33v62h99v12h-99v34Q2185.4,415.82,2284.4,454.812Zm-457.8,29-1.5,1q-79.515-11.014-108-60-13.5,27-111,60h-16.5q90-33,96-57,4.5-10.992,6-27,2.985-12.984,3-51h33a80.937,80.937,0,0,0-1.5,15q-1.515,37.008-4.5,53,5.985,9,19.5,17,32.985-13.992,31.5-29v-68h-129v92h-30v-108h30v6h129v-8h30v82q1.485,22.008-57,36,29.985,15,87,19Q1817.585,471.812,1826.6,483.812Zm-63-182h-108v10h-30v-72h30v10h108v-10h30v72h-30v-10Zm0-42h-108v32h108v-32Zm-436.8,199q-1.515,15-36,29c-1.01-.671-2.01-1.343-3-2q-3.015-5.014-12-3l-30,4-3-4q50.985-11.014,51-22v-139h-78v-10h153v10h-42v137Zm-90-207h117v10h-117v-10Zm-106.5,54h-13.5q38.985-22.992,48-66h39c-1.01,1.344-2.01,2.672-3,4Q1176.785,281.828,1130.3,305.812Zm70.5-18a329.086,329.086,0,0,1-27,44h15v153h-33v-135a453.828,453.828,0,0,1-36,29h-9q40.5-34.992,57-91h33Zm-426.3-24H647v-10H774.5v-12h30v81l9,5,61.5-56,15,8-66,54q7.488,5.016,22.5,12,23.976,12,37.5,18,0,9-4.5,22v5l-3,1q-33.012-21-72-64v40q0,72,67.5,89l15-55h3l-4.5,54q-1.512,3.986,12,7v26q-120.024-19.006-123-109v-116ZM1094.23,1191.9c-0.92,2-2.09,2.99-3.53,2.99q-2.07,0-3.44-2.74a21.166,21.166,0,0,1-1.79-7.55l-0.83-10.13a122.485,122.485,0,0,0-4.81-26.73,33.3,33.3,0,0,0-6.06-11.45V1116.2h21.83v67.9A18.906,18.906,0,0,1,1094.23,1191.9Zm-9.51-130.84a4.847,4.847,0,0,0,.96,1.91c0.3,0.28,1.37,1.03,3.19,2.24q3.33,2.16,3.32,8.97,0,8.64-6.22,8.63h-41.92a6.743,6.743,0,0,1-5.52-2.24q-1.875-2.235-1.87-6.72,0-7.3,3.99-9.13c2.15-1.11,3.43-1.8,3.81-2.08a4.273,4.273,0,0,0,1.17-1.91q1.245-2.985,1.24-9.46V856.2h39.1q6.225,0,6.22,8.633,0,6.809-3.32,8.965c-1.82,1.219-2.89,1.966-3.19,2.241a4.927,4.927,0,0,0-.96,1.909q-0.99,2.658-.99,8.467V1052.6C1083.73,1056.47,1084.06,1059.3,1084.72,1061.06Zm-68.39,21.75L984.118,891.728q-1.662-9.625-3.486-12.949a6.506,6.506,0,0,0-3.736-3.154q-5.4-2.323-5.395-10.293a12.472,12.472,0,0,1,1.535-6.724,4.957,4.957,0,0,1,4.441-2.407h38.853l16.35,93.135,7.22-50.3V954.15l-19.18,128.66h-4.39Zm-34.353,55.14q16.932,33.03,16.933,91.81,0,57.6-16.186,89.81-12.452,24.9-30.962,27.72v-18.26a8.684,8.684,0,0,0,3.361-2.57,15.868,15.868,0,0,0,2.2-4.57q2.241-6.8,2.241-20.58V1152.89a51.886,51.886,0,0,0-1.494-13.94,18.8,18.8,0,0,0-2.365-5.48,15.852,15.852,0,0,0-3.943-3.82v-17.93a28.582,28.582,0,0,1,16.394,7.3Q975.584,1125.5,981.977,1137.95Zm-67.9,181.62q-16.187-32.205-16.187-89.81a290.9,290.9,0,0,1,4.276-52.22q4.274-23.31,12.658-39.59,6.391-12.45,13.779-18.93a28.388,28.388,0,0,1,16.353-7.3v17.93a15.909,15.909,0,0,0-5.977,8.13q-1.743,5.16-1.743,15.11v148.42q0,14.61,1.992,20.58a11.537,11.537,0,0,0,5.728,7.14v18.26Q926.527,1344.3,914.076,1319.57Zm-15.34-44.33v67.57H867.027v-18.59a24.333,24.333,0,0,0,6.433-3.32,19.847,19.847,0,0,0,4.524-5.31,62.233,62.233,0,0,0,6.392-15.11,158.45,158.45,0,0,0,4.731-21.42c0.885-6.08,1.7-10.1,2.449-12.03s1.839-2.91,3.279-2.91q2.322,0,3.4,3.82A33.862,33.862,0,0,1,898.736,1275.24Zm-23.657-214.18a4.817,4.817,0,0,0,.955,1.91c0.3,0.28,1.369,1.03,3.2,2.24q3.319,2.16,3.321,8.97a10.778,10.778,0,0,1-1.619,6.39,5.329,5.329,0,0,1-4.607,2.24H834.986a5.329,5.329,0,0,1-4.607-2.24,10.778,10.778,0,0,1-1.618-6.39q0-6.81,3.32-8.97c1.826-1.21,2.891-1.96,3.2-2.24a4.846,4.846,0,0,0,.954-1.91c0.664-1.76,1-4.59,1-8.46V886.416q0-5.81-1-8.467a4.926,4.926,0,0,0-.954-1.909q-0.458-.412-3.2-2.241-3.321-2.156-3.32-8.965a10.8,10.8,0,0,1,1.618-6.392,5.344,5.344,0,0,1,4.607-2.241h41.338a5.344,5.344,0,0,1,4.607,2.241,10.8,10.8,0,0,1,1.619,6.392q0,6.809-3.321,8.965-2.739,1.829-3.2,2.241a4.9,4.9,0,0,0-.955,1.909q-1,2.658-1,8.467V1052.6C874.083,1056.47,874.415,1059.3,875.079,1061.06Zm-11.87,55.14c2.434,0,4.177.67,5.229,1.99a10.727,10.727,0,0,1,2.158,6.98q0,7.3-3.984,9.13a23.665,23.665,0,0,0-3.818,1.99,5.884,5.884,0,0,0-1.245,1.99q-1.245,2.985-1.245,9.3v195.23h-39.1a5.329,5.329,0,0,1-4.607-2.24,10.778,10.778,0,0,1-1.619-6.39q0-6.81,3.321-8.97c1.826-1.21,2.891-1.96,3.195-2.24a4.83,4.83,0,0,0,.955-1.91c0.664-1.76,1-4.59,1-8.46V1146.42q0-5.82-1-8.47a4.909,4.909,0,0,0-.955-1.91c-0.3-.27-1.369-1.02-3.195-2.24q-3.321-2.16-3.321-8.97a10.82,10.82,0,0,1,1.619-6.39,5.353,5.353,0,0,1,4.607-2.24h42Zm-65.062,204.86a4.817,4.817,0,0,0,.955,1.91c0.3,0.28,1.37,1.03,3.2,2.24q3.318,2.16,3.32,8.97a10.771,10.771,0,0,1-1.619,6.39,5.328,5.328,0,0,1-4.607,2.24H758.055a5.328,5.328,0,0,1-4.607-2.24,10.771,10.771,0,0,1-1.619-6.39q0-6.81,3.32-8.97c1.826-1.21,2.891-1.96,3.2-2.24a4.83,4.83,0,0,0,.955-1.91c0.664-1.76,1-4.59,1-8.46V1146.42q0-5.82-1-8.47a4.909,4.909,0,0,0-.955-1.91c-0.305-.27-1.37-1.02-3.2-2.24q-3.321-2.16-3.32-8.97a10.813,10.813,0,0,1,1.619-6.39,5.352,5.352,0,0,1,4.607-2.24h41.337a5.352,5.352,0,0,1,4.607,2.24,10.813,10.813,0,0,1,1.619,6.39q0,6.81-3.32,8.97c-1.826,1.22-2.892,1.97-3.2,2.24a4.895,4.895,0,0,0-.955,1.91q-1,2.655-1,8.47V1312.6C797.151,1316.47,797.483,1319.3,798.147,1321.06Zm-73.694-71.22q-8.385,6.15-24.155,6.15v-17.77a13.736,13.736,0,0,0,5.022-3.48,16.44,16.44,0,0,0,2.531-5.65q1.743-6.465,1.744-17.43v-53.12a84.6,84.6,0,0,0-.582-11.63,20.811,20.811,0,0,0-2.324-6.97q-2.408-4.65-6.474-5.81V1116.2q17.1,0,25.234,6.48,9.38,7.47,14.859,22.91,5.559,15.765,5.561,38.68,0,25.56-5.645,41.83Q734.58,1242.21,724.453,1249.84Zm-5.147-174a40.3,40.3,0,0,1-10.915,8.38,24.252,24.252,0,0,1-11.081,3.07v-18.92a21.951,21.951,0,0,0,10.417-9.71q3.2-6.225,3.2-16.85a37.894,37.894,0,0,0-4.981-19.59q-3.321-5.49-12.617-13.62-10.211-8.955-13.987-12.78a62.5,62.5,0,0,1-7.263-8.965q-15.606-22.244-15.605-59.267a147.511,147.511,0,0,1,3.9-34.946q3.9-16.02,10.874-25.816,9.712-13.611,24.072-15.107V870.81a18.228,18.228,0,0,0-7.844,8.716,34.83,34.83,0,0,0-2.7,14.527,42.815,42.815,0,0,0,2.242,14.526,36.133,36.133,0,0,0,7.3,11.87q3.486,3.821,15.772,14.609a88.834,88.834,0,0,1,11.579,11.705,67.276,67.276,0,0,1,7.761,13.032q9.793,20.587,9.795,48.975a136.356,136.356,0,0,1-5.312,39.18Q728.6,1065.71,719.306,1075.84Zm11.123-143.272q-1.66,0-3.071-2.158a12.511,12.511,0,0,1-1.2-3.237,51.142,51.142,0,0,1-.872-6.392,120.205,120.205,0,0,0-3.154-16.767,102.7,102.7,0,0,0-5.23-15.44q-5.976-13.447-15.024-17.764V852.549a25.99,25.99,0,0,1,8.633,2.573,66.066,66.066,0,0,1,10.376,7.554A4.87,4.87,0,0,0,723.623,864q1.576,0,2.324-2.158l1.826-4.815q1.327-3.649,3.238-3.652,2.241,0,3.278,3.237t1.038,10.21v54.785a19.475,19.475,0,0,1-1.37,7.886Q732.588,932.571,730.429,932.568ZM669.5,1075.01a2.941,2.941,0,0,0-2.49,1.08,31.3,31.3,0,0,0-2.657,5.39q-1.494,3.66-3.237,3.66-4.65,0-4.648-14.28v-60.43a20.807,20.807,0,0,1,1.328-7.89c0.884-2.15,1.992-3.288,3.32-3.4,1.217-.109,2.171.581,2.864,2.079a30.417,30.417,0,0,1,1.784,7.88,182.945,182.945,0,0,0,5.521,26.73,101.37,101.37,0,0,0,8.425,21.08q4.9,8.97,11.289,11.46v18.92q-6.807,0-15.025-7.8a55.848,55.848,0,0,0-4.233-3.65A3.912,3.912,0,0,0,669.5,1075.01Zm23.74,236.26q0,6.48,1.245,9.3a4.909,4.909,0,0,0,1.245,2.07c0.387,0.28,1.66.97,3.819,2.08q3.984,1.83,3.984,9.13a10.7,10.7,0,0,1-2.158,6.97q-1.578,2-5.23,1.99h-42a5.33,5.33,0,0,1-4.607-2.24,10.778,10.778,0,0,1-1.618-6.39q0-6.81,3.32-8.97c1.826-1.21,2.891-1.96,3.2-2.24a4.858,4.858,0,0,0,.955-1.91c0.664-1.76,1-4.59,1-8.46V1146.42q0-5.82-1-8.47a4.937,4.937,0,0,0-.955-1.91c-0.305-.27-1.37-1.02-3.2-2.24q-3.321-2.16-3.32-8.97a10.82,10.82,0,0,1,1.618-6.39,5.354,5.354,0,0,1,4.607-2.24h39.1v195.07Zm279.006-236.76a11.949,11.949,0,0,1,.539-4.07,11.751,11.751,0,0,1,2.117-3.23q9.215-9.96,9.214-34.53V932.568l8.8,50.137v49.975q0,7.635.29,10.95a47.448,47.448,0,0,0,1.287,7.31q1.743,7.3,4.814,10.95l3.072,3.99a13,13,0,0,1,3.15,8.47q0,8.46-6.222,8.46H978.474Q972.248,1082.81,972.248,1074.51Zm51.052,61.78a31.38,31.38,0,0,0-6.06,11.45,121.854,121.854,0,0,0-4.82,26.73l-0.83,10.13a21.186,21.186,0,0,1-1.78,7.55q-1.365,2.745-3.45,2.74c-1.44,0-2.61-.99-3.52-2.99a18.744,18.744,0,0,1-1.37-7.8v-67.9h21.83v20.09Zm0.5,188.43c2.15-1.11,3.43-1.8,3.81-2.08a4.46,4.46,0,0,0,1.17-2.07q1.245-2.82,1.24-9.3V1116.2h36.86v195.07q0,6.48,1.24,9.3a4.863,4.863,0,0,0,1.25,2.07c0.38,0.28,1.66.97,3.82,2.08q3.975,1.83,3.98,9.13a10.694,10.694,0,0,1-2.16,6.97q-1.575,2-5.31,1.99h-42.5a6.743,6.743,0,0,1-5.52-2.24q-1.875-2.235-1.87-6.72Q1019.81,1326.545,1023.8,1324.72Zm2165-435.2q-0.885,1.763-7.56,9.492-7.74,8.438-12.13,25.84t-4.39,39.55V1193.97q0,59.055-13.01,97.03-9.495,28.125-27.25,45a52.922,52.922,0,0,1-21.09,12.3v-46.05q17.58-4.56,29.36-28.83,13.35-27.765,13.36-79.8V964.4q0-48.16-18.46-67.148-5.46-5.619-7.12-9.668-1.68-4.038-1.67-11.777,0-9.138,3.34-13.008t10.9-3.867h43.06a32.125,32.125,0,0,1,7.3.527,7.58,7.58,0,0,1,3.6,2.637q4.575,5.273,4.57,14.414A27.433,27.433,0,0,1,3188.8,889.516Zm-143.44,450.7q-17.745-9.495-31.11-28.13a118.951,118.951,0,0,1-18.98-41.83q-5.985-24.6-5.98-71.72V922.914q0-12.3-2.11-17.93a10.428,10.428,0,0,0-2.02-4.043c-0.65-.582-2.9-2.164-6.77-4.746q-7.035-4.565-7.03-18.633,0-9.136,3.43-13.886a11.3,11.3,0,0,1,9.75-4.746h87.54l6.33,1.406q2.985,1.762,4.92,6.328a27.862,27.862,0,0,1,1.94,10.9q0,14.065-7.04,18.633c-3.86,2.582-6.12,4.164-6.76,4.746a10.289,10.289,0,0,0-2.02,4.043q-2.115,5.628-2.11,17.93V1217.87q0,29.895.79,41.67a115.2,115.2,0,0,0,3.25,21.26c1.52,5.87,3.22,10.08,5.1,12.66s5.45,5.51,10.72,8.79v46.05h-3.87Q3060.485,1348.3,3045.36,1340.22Zm-143.19-43.24,5.63,3.86q7.02,4.575,7.03,19.34,0,18.645-13.19,18.63h-87.89q-12.3,0-12.3-18.63,0-14.76,6.68-19.34l5.62-3.86q5.1-3.165,5.1-23.56V1111H2790.2v-34.8h28.65V922.914q0-19.684-5.1-23.2l-5.62-3.516q-6.69-4.218-6.68-18.984,0-18.276,12.66-18.281h87.53q13.185,0,13.19,18.281,0,14.419-7.03,18.984-5.805,3.873-6.77,4.746a10.289,10.289,0,0,0-2.02,4.043q-2.115,5.628-2.11,17.93V1273.42Q2896.9,1292.755,2902.17,1296.98ZM2780.36,899.711q-5.1,3.519-5.1,23.2V1274.83q0,19.7,5.1,23.2l5.44,3.52q6.69,4.215,6.68,18.98,0,18.285-12.48,18.28h-87.54a11.315,11.315,0,0,1-9.75-4.74q-3.435-4.755-3.43-13.54,0-14.415,7.03-18.98c3.87-2.58,6.12-4.16,6.77-4.75a10.338,10.338,0,0,0,2.02-4.04q2.115-5.625,2.11-17.93V922.914q0-12.3-2.11-17.93a10.428,10.428,0,0,0-2.02-4.043c-0.65-.582-2.9-2.164-6.77-4.746q-7.035-4.565-7.03-18.984,0-8.784,3.43-13.535a11.31,11.31,0,0,1,9.75-4.746H2780q12.48,0,12.48,18.281,0,14.766-6.68,18.984ZM2527.12,1348.3v-38.67a18.35,18.35,0,0,0,7.12-5.45,33.55,33.55,0,0,0,4.66-9.66q4.755-14.415,4.75-43.6v-314.3q0-18.63-3.17-29.531a39.809,39.809,0,0,0-5.01-11.6,33.34,33.34,0,0,0-8.35-8.086V849.437q18.99,1.764,34.72,15.469t29.27,40.078q35.865,69.964,35.86,194.416,0,121.995-34.28,190.19Q2566.32,1342.33,2527.12,1348.3Zm-79.8-58.71q-34.275-68.19-34.28-190.19,0-61.17,9.06-110.568t26.8-83.848q13.53-26.367,29.18-40.078t34.63-15.469v37.969a33.765,33.765,0,0,0-12.66,17.227q-3.69,10.9-3.69,31.992v314.3q0,30.945,4.22,43.6,3.345,10.545,12.13,15.11v38.67Q2473.695,1341.985,2447.32,1289.59Zm-135.63,9.85a51.408,51.408,0,0,0,13.62-7.03,41.934,41.934,0,0,0,9.58-11.25q7.38-11.61,13.54-32a335.083,335.083,0,0,0,10.02-45.35q2.805-19.32,5.18-25.49c1.58-4.09,3.9-6.15,6.94-6.15q4.92,0,7.21,8.09,1.05,3.87,1.06,15.47v143.08h-67.15v-39.37Zm-8.97-397.971a12.34,12.34,0,0,0-2.63,4.218q-2.64,6.328-2.64,19.688V1338.81h-82.79a11.333,11.333,0,0,1-9.76-4.74q-3.42-4.755-3.43-13.54,0-14.415,7.03-18.98,5.8-3.87,6.77-4.75a10.338,10.338,0,0,0,2.02-4.04q2.115-5.625,2.11-17.93V922.914q0-12.3-2.11-17.93a10.428,10.428,0,0,0-2.02-4.043q-0.96-.873-6.77-4.746-7.02-4.565-7.03-18.984,0-8.784,3.43-13.535a11.328,11.328,0,0,1,9.76-4.746h88.94q7.74,0,11.08,4.218,4.56,5.628,4.57,14.766,0,15.474-8.44,19.336Q2303.955,900.414,2302.72,901.469ZM2123.85,1117.68q11.775,15.12,18.02,39.9,6.225,24.8,6.24,55.37,0,60.12-22.15,93.87-11.43,17.58-25.23,24.79t-36.12,7.2h-20.92V1301.9q7.035-1.05,11.08-4.04t7.2-10.02q5.805-13,5.8-40.43V1167.6q0-17.58-1.49-27.42a59.935,59.935,0,0,0-5.54-17.93q-2.985-6.33-6.5-9.14a27.7,27.7,0,0,0-10.02-4.57v-36.56a25.312,25.312,0,0,0,10.11-3.52q3.6-2.46,6.59-8.09a56.267,56.267,0,0,0,4.74-13.71,77.766,77.766,0,0,0,2.11-15.46V951.039a131.136,131.136,0,0,0-1.58-19.863,81.485,81.485,0,0,0-3.87-16.348q-3.33-8.083-7.47-11.953a22.341,22.341,0,0,0-11.16-5.273V858.93h20.22q40.065,0,61.17,33.046,9.66,15.122,14.76,36.563a212.052,212.052,0,0,1-.08,92.811q-5.19,21.81-14.51,36.21a67.212,67.212,0,0,1-15.82,18.28q-8.955,7.035-25.31,14.42,15.825,6.33,24.35,12.3A68.523,68.523,0,0,1,2123.85,1117.68Zm-177.19,221.13a11.333,11.333,0,0,1-9.76-4.74q-3.42-4.755-3.42-13.54,0-14.415,7.03-18.98,5.79-3.87,6.77-4.75a10.479,10.479,0,0,0,2.02-4.04q2.1-5.625,2.11-17.93V922.914q0-12.3-2.11-17.93a10.572,10.572,0,0,0-2.02-4.043q-0.975-.873-6.77-4.746-7.035-4.565-7.03-18.984,0-8.784,3.42-13.535a11.328,11.328,0,0,1,9.76-4.746h82.79v479.88h-82.79Zm-68.31,0h-87.71c-3.52,0-6.33-1.69-8.44-5.1-2.11-3.39-3.16-7.91-3.16-13.53,0-4.69.46-8.2,1.4-10.55s3.05-5.27,6.33-8.79a19.777,19.777,0,0,0,4.92-7.73,33.7,33.7,0,0,0,1.41-10.55,93.241,93.241,0,0,0-.53-10.54l-5.62-50.98H1737.9l4.75-41.84h39.37l-32.34-285.817,4.39-34.453h70.84l48.87,413.09q1.41,10.89,3.17,19.33a18.837,18.837,0,0,0,7.03,10.9,23.145,23.145,0,0,1,6.32,7.73q1.755,3.885,1.76,10.55Q1892.06,1338.815,1878.35,1338.81Zm-158.55-90.7a129.489,129.489,0,0,0-1.41,18.28q0,22.155,10.37,31.64l6.15,5.63q5.8,5.265,5.8,17.57,0,17.6-12.83,17.58h-44.65a11.866,11.866,0,0,1-10.28-5.45q-3.78-5.445-3.78-14.94a21.331,21.331,0,0,1,7.74-16.87,62.574,62.574,0,0,0,10.63-11.43,63.8,63.8,0,0,0,6.59-13.89q4.92-14.4,8.09-38.32l39.73-289.683,8.96,72.773Zm-107.86,44.65a10.2,10.2,0,0,0,2.02,4.04q0.96,0.885,6.77,4.75,7.02,4.575,7.03,18.98,0,8.79-3.43,13.54a11.333,11.333,0,0,1-9.76,4.74h-87.53a11.321,11.321,0,0,1-9.76-4.74q-3.435-4.755-3.43-13.54,0-14.415,7.03-18.98c3.87-2.58,6.12-4.16,6.77-4.75a10.338,10.338,0,0,0,2.02-4.04q2.115-5.625,2.11-17.93V922.914q0-12.3-2.11-17.93a10.428,10.428,0,0,0-2.02-4.043c-0.65-.582-2.9-2.164-6.77-4.746q-7.035-4.565-7.03-18.984,0-8.784,3.43-13.535a11.316,11.316,0,0,1,9.76-4.746h87.53a11.328,11.328,0,0,1,9.76,4.746q3.435,4.746,3.43,13.535,0,14.419-7.03,18.984-5.805,3.873-6.77,4.746a10.289,10.289,0,0,0-2.02,4.043q-2.115,5.628-2.11,17.93V1274.83Q1609.83,1287.13,1611.94,1292.76Zm-197.69,19.33q-11.955,15.48-22.23,21.1t-26.98,5.62v-37.97q7.38-3.855,10.28-7.03t5.01-9.84a77.478,77.478,0,0,0,3.6-17.4q0.96-9.675.97-28.3V960.883q0-25.659-3.69-40.781-2.3-9.838-5.63-14.415t-10.54-7.734V858.93a76.393,76.393,0,0,1,15.82,1.406q22.32,4.928,43.24,37.969,20.73,32,30.76,83.32,10.365,52.027,10.37,115.315,0,71.715-13.18,127.44T1414.25,1312.09Zm-147.65,26.72a11.333,11.333,0,0,1-9.76-4.74q-3.42-4.755-3.43-13.54,0-14.415,7.04-18.98c3.86-2.58,6.12-4.16,6.76-4.75a10.2,10.2,0,0,0,2.02-4.04q2.115-5.625,2.11-17.93V922.914q0-12.3-2.11-17.93a10.289,10.289,0,0,0-2.02-4.043c-0.64-.582-2.9-2.164-6.76-4.746q-7.035-4.565-7.04-18.984,0-8.784,3.43-13.535a11.328,11.328,0,0,1,9.76-4.746h82.79v479.88H1266.6Z" transform="translate(-420 -237.812)"/>
</svg>
