<svg aria-hidden="true" style="position: absolute; width: 0; height: 0; overflow: hidden;" version="1.1" xmlns="http://www.w3.org/2000/svg" xmlns:xlink="http://www.w3.org/1999/xlink">
<defs>
<symbol id="icon-bilibili" viewBox="0 0 35 32">
<path d="M20.807 9.893c0.094 0.141 0.752 4.873 0.58 4.904s-1.394 0.313-1.394 0.313c-0.094-0.642-0.893-4.622-0.909-5.029zM22.076 14.719c0.329-0.016 1.661-0.11 1.786-0.125-0.204-1.927-0.517-4.967-0.517-4.967-0.627-0.125-1.285-0.125-1.911 0zM24.113 16.317c0.533 1.927 1.504 12.738 1.598 13.177-0.658 0.078-2.82 0.266-2.993 0.313-0.141-0.815-2.554-12.597-2.554-13.114zM32.62 10.159c0.031 0.376 0.188 4.92 0.016 4.935s-1.394 0.125-1.394 0.125c-0.031-0.627-0.36-4.591-0.345-5.014zM33.388 15.11c0.329 0 1.645 0.078 1.786 0.063-0.031-1.927 0-4.967 0-4.967-0.627-0.11-1.269-0.141-1.911-0.125zM35.205 16.912c0.219 2.256 0.188 12.769 0.219 13.208-0.674 0-2.82 0.031-2.993 0.063-0.016-0.815-1.238-12.832-1.191-13.349zM27.419 28.459c0 0 1.347 0.031 2.867 0.125-0.893-9.385-1.99-24.379-1.974-24.88-0.376-0.407-3.948 0.204-3.948 0.204zM20.603 24.511c-0.329-2.444-9.072-5.217-13.991-4.324 0 0-0.611-5.39-0.846-10.607-0.204-4.481-0.031-8.837 0.016-9.557-0.329-0.219-3.87 1.457-5.781 2.162 0 0 2.288 9.683 3.948 29.769 0 0 2.648 0.282 7.191-0.595s9.918-3.619 9.463-6.847zM9.918 28.913l-0.768-5.531c0.188-0.094 4.904 1.661 5.405 1.974-0.078 0.345-4.638 3.557-4.638 3.557z"></path>
</symbol>
<symbol id="icon-youtube" viewBox="0 0 32 32">
<path d="M31.682 9.6c0 0-0.312-2.206-1.274-3.174-1.218-1.274-2.582-1.282-3.206-1.356-4.474-0.326-11.194-0.326-11.194-0.326h-0.012c0 0-6.718 0-11.194 0.326-0.626 0.076-1.988 0.082-3.206 1.356-0.962 0.968-1.268 3.174-1.268 3.174s-0.318 2.588-0.318 5.182v2.426c0 2.588 0.318 5.182 0.318 5.182s0.312 2.206 1.268 3.176c1.218 1.274 2.818 1.232 3.532 1.368 2.562 0.244 10.882 0.318 10.882 0.318s6.726-0.012 11.2-0.332c0.626-0.074 1.988-0.082 3.206-1.356 0.962-0.968 1.274-3.176 1.274-3.176s0.318-2.588 0.318-5.182v-2.426c-0.006-2.588-0.324-5.182-0.324-5.182zM12.694 20.15v-8.994l8.644 4.512-8.644 4.482z"></path>
</symbol>
<symbol id="icon-menu" viewBox="0 0 16 16">
<path d="M1 3h14v2h-14v-2z"></path>
<path d="M1 7h14v2h-14v-2z"></path>
<path d="M1 11h14v2h-14v-2z"></path>
</symbol>
</defs>
</svg>
