<?xml version="1.0" encoding="UTF-8"?>
<svg width="1024px" height="1024px" viewBox="0 0 1024 1024" version="1.1" xmlns="http://www.w3.org/2000/svg" xmlns:xlink="http://www.w3.org/1999/xlink">
    <!-- Generator: Sketch 61 (89581) - https://sketch.com -->
    <title>LOGO</title>
    <defs>
        <path
            d="M512,0 C924,0 1024,110.005303 1024,512.002962 C1024,914.000621 924,1024 511.99926,1024 C99.9985198,1024 0,914.000621 0,512.002962 C0,110.005303 100,0 512,0 Z"
            id="path-1"></path>
    </defs>
    <g id="LOGO" stroke="none" stroke-width="1" fill="none" fill-rule="evenodd">
        <g id="画板" transform="translate(-5293.000000, -1774.000000)">
            <g id="LOGO" transform="translate(5293.000000, 1774.000000)">
                <g id="Combined-Shape-Clipped">
                    <mask id="mask-2" fill="#ffffff">
                        <use xlink:href="#path-1"></use>
                    </mask>
                    <g id="path-1"></g>
                    <path
                        d="M689.186368,277.345471 C750.464947,285.484322 803.171301,337.278808 818.476679,403.049357 C827.023446,439.082282 833.345125,474.946924 837.417938,510.651743 C841.534914,546.743715 843.235028,582.678018 842.491941,618.54887 C840.656311,691.435952 790.222528,748.615385 717.09876,748.615385 C691.053389,748.615385 677.517508,743.527382 663.946771,730.871219 C663.867698,730.797474 659.806556,726.940916 658.713623,725.956222 C657.034378,724.443281 655.540835,723.236631 653.915663,722.105981 C636.603287,710.061575 597.304656,702.852641 511.831403,702.852641 C426.341638,702.852641 386.962363,710.067606 369.589298,722.120926 C367.94963,723.258516 366.444734,724.471962 364.753996,725.993219 C363.655903,726.981239 359.58511,730.842757 359.488759,730.932488 C345.952082,743.539077 332.455204,748.615385 306.564048,748.615385 C229.407173,748.615385 183.067911,693.874664 181.168786,618.45831 C180.427777,582.678018 182.127892,546.743715 186.244867,510.651743 C190.31768,474.946929 196.639357,439.082293 205.166445,403.133124 C220.490834,337.281621 273.193358,285.488731 334.468608,277.346512 C356.032134,274.46617 368.064231,276.107378 380.462659,283.256448 C382.042207,284.167233 386.856689,287.166037 387.71725,287.675163 C390.121326,289.097465 392.312604,290.221968 394.929853,291.321433 C413.011613,298.917295 447.551096,303.478839 511.831403,303.478839 C576.11171,303.478839 610.651192,298.917295 628.732953,291.321433 C631.350202,290.221968 633.54148,289.097465 635.945556,287.675163 C636.806117,287.166037 641.6206,284.167233 643.200148,283.256448 C655.600077,276.106513 667.633586,274.465773 689.186368,277.345471 Z M567.233139,546.138527 C559.814988,545.371714 553.17976,550.763647 552.412942,558.181747 C551.665975,565.407801 545.953961,571.119776 538.727857,571.866737 C530.29844,572.738084 522.758676,566.611105 521.887323,558.181747 C520.217562,542.028692 496.693582,542.028692 495.023821,558.181747 C494.276855,565.407801 488.564841,571.119776 481.338736,571.866737 C472.90932,572.738084 465.369556,566.611105 464.498203,558.181747 C463.731385,550.763647 457.096156,545.371714 449.678005,546.138527 C442.259854,546.905339 436.867883,553.540522 437.634701,560.958622 C440.03969,584.224179 460.849911,601.135024 484.11563,598.730052 C493.478191,597.762246 501.919848,593.774612 508.455293,587.752453 C517.076777,595.688701 528.932238,600.02967 541.504751,598.730052 C561.449253,596.668393 577.21477,580.902985 579.276443,560.958622 C580.043261,553.540522 574.651291,546.905339 567.233139,546.138527 Z M677.24722,431.289512 L569.220406,431.289512 C559.898372,431.289512 552.34137,438.846514 552.34137,448.168548 C552.34137,457.490582 559.898372,465.047584 569.220406,465.047584 L569.220406,465.047584 L628.566741,465.047801 C627.293412,469.326299 626.609643,473.858705 626.609643,478.550813 C626.609643,483.24292 627.293412,487.775327 628.566741,492.053825 L628.566741,492.053825 L569.220406,492.054041 C559.898372,492.054041 552.34137,499.611043 552.34137,508.933077 C552.34137,518.255111 559.898372,525.812113 569.220406,525.812113 L569.220406,525.812113 L677.24722,525.812113 C678.950683,525.812113 680.595208,525.559768 682.145292,525.090294 C704.302103,521.177953 721.1329,501.829891 721.1329,478.550813 C721.1329,455.27453 704.306144,435.928319 682.153412,432.013616 C680.600838,431.542721 678.953599,431.289512 677.24722,431.289512 L677.24722,431.289512 Z M434.187416,431.289512 L319.408941,431.289512 C310.086907,431.289512 302.529905,438.846514 302.529905,448.168548 C302.529905,457.490582 310.086907,465.047584 319.408941,465.047584 L319.408941,465.047584 L385.506938,465.047801 C384.233608,469.326299 383.54984,473.858705 383.54984,478.550813 C383.54984,483.24292 384.233608,487.775327 385.506938,492.053825 L385.506938,492.053825 L319.408941,492.054041 C310.086907,492.054041 302.529905,499.611043 302.529905,508.933077 C302.529905,518.255111 310.086907,525.812113 319.408941,525.812113 L319.408941,525.812113 L434.187416,525.812113 C435.891208,525.812113 437.536039,525.559671 439.086486,525.090118 C461.242804,521.177372 478.073097,501.829541 478.073097,478.550813 C478.073097,455.27453 461.246341,435.928319 439.093534,432.013593 C437.540981,431.542713 435.893768,431.289512 434.187416,431.289512 L434.187416,431.289512 Z"
                        id="Combined-Shape"
                        fill="#ffffff"
                        fill-rule="nonzero"
                        mask="url(#mask-2)"
                    ></path>
                </g>
            </g>
        </g>
    </g>
</svg>
